<?xml version="1.0" encoding="utf-8"?>
<!-- Generator: Adobe Illustrator 23.0.4, SVG Export Plug-In . SVG Version: 6.00 Build 0)  -->
<svg version="1.1" id="Capa_1" xmlns="http://www.w3.org/2000/svg" xmlns:xlink="http://www.w3.org/1999/xlink" x="0px" y="0px"
	 viewBox="0 0 240.8 240.8" style="enable-background:new 0 0 240.8 240.8;" xml:space="preserve">
<style type="text/css">
	.st0{opacity:0.7;fill:#F4F4F4;}
	.st1{fill:#216B9A;}
</style>
<ellipse class="st0" cx="127.9" cy="118.4" rx="73.5" ry="74"/>
<g>
	<g>
		<path class="st1" d="M127.5,196.6c-43,0-77.9-35.3-77.9-78.7s35-78.7,77.9-78.7s77.9,35.3,77.9,78.7
			C205.4,161.3,170.4,196.6,127.5,196.6z M127.5,48.2c-38.1,0-69,31.3-69,69.7s31,69.7,69,69.7c38.1,0,69-31.3,69-69.7
			S165.5,48.2,127.5,48.2z"/>
	</g>
	<g>
		<path class="st1" d="M158.2,122.4H96.7c-2.5,0-4.5-2-4.5-4.5c0-2.5,2-4.5,4.5-4.5h61.5c2.5,0,4.5,2,4.5,4.5
			C162.6,120.4,160.7,122.4,158.2,122.4z"/>
	</g>
	<g>
		<path class="st1" d="M127.5,153.4c-2.5,0-4.5-2-4.5-4.5v-62c0-2.5,2-4.5,4.5-4.5s4.5,2,4.5,4.5v62
			C131.9,151.4,129.9,153.4,127.5,153.4z"/>
	</g>
</g>
</svg>
