<?xml version="1.0" encoding="utf-8"?>
<!-- Generator: Adobe Illustrator 23.0.4, SVG Export Plug-In . SVG Version: 6.00 Build 0)  -->
<svg version="1.1" id="Ebene_1" xmlns="http://www.w3.org/2000/svg" xmlns:xlink="http://www.w3.org/1999/xlink" x="0px" y="0px"
	 viewBox="0 0 800 800" style="enable-background:new 0 0 800 800;" xml:space="preserve">
<style type="text/css">
	.st0{fill:url(#SVGID_1_);}
	.st1{fill:#FFFFFF;}
</style>
<linearGradient id="SVGID_1_" gradientUnits="userSpaceOnUse" x1="405" y1="782" x2="405" y2="10">
	<stop  offset="0" style="stop-color:#3294D1"/>
	<stop  offset="1" style="stop-color:#1C6A9C"/>
</linearGradient>
<ellipse class="st0" cx="405" cy="396" rx="390" ry="386"/>
<g>
	<path class="st1" d="M667,445.6V268.27c0-3.89-2.56-7.31-6.28-8.41l-82.05-24.34c6.35-15.53,10.31-30.95,10.31-45.27
		C588.98,130.56,540.42,82,480.74,82s-108.24,48.56-108.24,108.24c0,14.32,3.96,29.73,10.31,45.27l-79.55,23.6L128.27,207.2
		c-2.65-0.79-5.53-0.27-7.75,1.38c-2.22,1.66-3.53,4.26-3.53,7.03v177.55c0,0.02,0,0.04,0,0.06v177.33c0,3.89,2.55,7.31,6.28,8.41
		l177.34,52.62c0.05,0.02,0.13,0.04,0.13,0.04c0.03,0.01,0.06,0.01,0.09,0.02c0.33,0.09,0.66,0.16,1,0.22
		c0.09,0.02,0.18,0.03,0.27,0.04c0.37,0.05,0.74,0.08,1.12,0.08c0.41,0,0.78-0.03,1.15-0.08c0.09-0.01,0.18-0.03,0.27-0.04
		c0.34-0.05,0.68-0.13,1.01-0.22c0.03-0.01,0.06-0.01,0.09-0.02l0.08-0.02c0.05-0.02,171.35-50.84,171.35-50.84
		c1.09,0.48,2.29,0.76,3.56,0.76c1.27,0,2.47-0.27,3.56-0.76l171.43,50.86c0.82,0.24,1.66,0.36,2.5,0.36c1.87,0,3.72-0.6,5.25-1.74
		c2.22-1.66,3.53-4.26,3.53-7.03V445.67C667,445.65,667,445.63,667,445.6L667,445.6z M649.45,274.82v159.17l-159.93-47.45v-24.96
		c11.44-11.79,56.39-59.67,81.77-109.94L649.45,274.82L649.45,274.82z M480.74,99.55c50.01,0,90.69,40.68,90.69,90.69
		c0,14.25-4.77,30.13-12.18,46.21c-0.37,0.59-0.67,1.23-0.9,1.91c-21.15,44.64-62.06,90.4-77.61,106.95
		c-15.55-16.54-56.42-62.23-77.58-106.86c-0.24-0.75-0.57-1.45-0.97-2.08c-7.39-16.05-12.14-31.89-12.14-46.13
		C390.05,140.24,430.73,99.55,480.74,99.55z M471.96,361.57v24.96l-159.93,47.45V274.82l78.16-23.19
		C415.57,301.9,460.52,349.79,471.96,361.57z M134.55,404.85l60.64,17.99c0.83,0.25,1.67,0.37,2.5,0.37c3.79,0,7.28-2.47,8.41-6.28
		c1.38-4.65-1.27-9.53-5.92-10.91l-65.63-19.47V227.37l159.92,47.45v159.17L233.84,416c-4.65-1.38-9.53,1.27-10.91,5.92
		c-1.38,4.65,1.27,9.53,5.92,10.91l65.63,19.47v159.17l-159.92-47.45V404.85L134.55,404.85z M489.51,564.01v-63.54
		c0-4.85-3.93-8.78-8.78-8.78s-8.78,3.93-8.78,8.78v63.54l-159.93,47.45V452.3l159.93-47.45v60.52c0,4.85,3.93,8.78,8.78,8.78
		s8.78-3.93,8.78-8.78v-60.52l159.93,47.45v159.17L489.51,564.01z"/>
	<path class="st1" d="M480.74,251.68c33.88,0,61.44-27.56,61.44-61.44c0-33.88-27.56-61.44-61.44-61.44s-61.44,27.56-61.44,61.44
		C419.3,224.12,446.86,251.68,480.74,251.68z M480.74,146.36c24.2,0,43.88,19.69,43.88,43.88s-19.69,43.88-43.88,43.88
		s-43.88-19.69-43.88-43.88S456.54,146.36,480.74,146.36z"/>
</g>
</svg>
