<?xml version="1.0" encoding="utf-8"?>
<!-- Generator: Adobe Illustrator 23.0.4, SVG Export Plug-In . SVG Version: 6.00 Build 0)  -->
<svg version="1.1" id="Ebene_1" xmlns="http://www.w3.org/2000/svg" xmlns:xlink="http://www.w3.org/1999/xlink" x="0px" y="0px"
	 viewBox="0 0 800 800" style="enable-background:new 0 0 800 800;" xml:space="preserve">
<style type="text/css">
	.st0{fill:url(#SVGID_1_);}
	.st1{fill:#FFFFFF;}
</style>
<linearGradient id="SVGID_1_" gradientUnits="userSpaceOnUse" x1="400" y1="775" x2="400" y2="25">
	<stop  offset="0" style="stop-color:#3294D1"/>
	<stop  offset="1" style="stop-color:#1C6A9C"/>
</linearGradient>
<path class="st0" d="M660.37,775H139.63C76.32,775,25,723.68,25,660.37V139.63C25,76.32,76.32,25,139.63,25h520.75
	C723.68,25,775,76.32,775,139.63v520.75C775,723.68,723.68,775,660.37,775z"/>
<g>
	<path class="st1" d="M698,480.05V289.82c0-4.17-2.74-7.84-6.74-9.03l-88.01-26.11c6.81-16.66,11.06-33.2,11.06-48.56
		C614.31,142.09,562.22,90,498.19,90s-116.12,52.09-116.12,116.12c0,15.36,4.25,31.9,11.06,48.56L307.8,280l-187.71-55.7
		c-2.85-0.84-5.93-0.3-8.31,1.48c-2.38,1.78-3.78,4.57-3.78,7.55v190.47c0,0.02,0,0.05,0,0.07V614.1c0,4.17,2.74,7.84,6.74,9.03
		l190.24,56.45c0.06,0.02,0.14,0.04,0.14,0.04c0.03,0.01,0.06,0.01,0.09,0.02c0.35,0.1,0.71,0.18,1.08,0.24
		c0.1,0.02,0.2,0.03,0.3,0.05c0.39,0.05,0.79,0.09,1.2,0.09c0.44,0,0.84-0.04,1.23-0.09c0.1-0.01,0.19-0.03,0.29-0.05
		c0.37-0.06,0.73-0.14,1.08-0.24c0.03-0.01,0.06-0.01,0.09-0.02l0.09-0.03c0.06-0.02,183.81-54.54,183.81-54.54
		c1.17,0.52,2.46,0.81,3.81,0.81c1.36,0,2.65-0.29,3.81-0.81l183.9,54.56c0.88,0.26,1.78,0.39,2.68,0.39c2.01,0,3.99-0.64,5.63-1.87
		c2.38-1.78,3.78-4.57,3.78-7.54V480.12C698,480.1,698,480.07,698,480.05L698,480.05z M679.17,296.84v170.74l-171.56-50.9v-26.78
		c12.28-12.64,60.49-64.01,87.72-117.94L679.17,296.84L679.17,296.84z M498.19,108.83c53.64,0,97.29,43.64,97.29,97.29
		c0,15.29-5.12,32.32-13.07,49.57c-0.39,0.63-0.72,1.31-0.96,2.05c-22.69,47.89-66.57,96.97-83.26,114.73
		c-16.68-17.74-60.52-66.76-83.22-114.63c-0.25-0.81-0.61-1.55-1.05-2.23c-7.93-17.21-13.02-34.21-13.02-49.49
		C400.9,152.47,444.55,108.83,498.19,108.83z M488.78,389.9v26.78l-171.56,50.9V296.84l83.85-24.88
		C428.29,325.89,476.5,377.26,488.78,389.9z M126.83,436.32l65.05,19.3c0.89,0.26,1.8,0.39,2.68,0.39c4.06,0,7.81-2.65,9.02-6.74
		c1.48-4.98-1.36-10.22-6.35-11.7l-70.4-20.89V245.94l171.55,50.9v170.74l-65.05-19.3c-4.98-1.48-10.22,1.36-11.7,6.35
		c-1.48,4.98,1.36,10.22,6.35,11.7l70.4,20.89v170.74l-171.56-50.9V436.32L126.83,436.32z M507.61,607.07v-68.16
		c0-5.2-4.21-9.41-9.41-9.41s-9.41,4.22-9.41,9.41v68.16l-171.56,50.9V487.23l171.56-50.9v64.92c0,5.2,4.21,9.41,9.41,9.41
		s9.41-4.22,9.41-9.41v-64.92l171.56,50.9v170.74L507.61,607.07z"/>
	<path class="st1" d="M498.19,272.02c36.34,0,65.9-29.56,65.9-65.9c0-36.34-29.57-65.9-65.9-65.9s-65.9,29.56-65.9,65.9
		C432.29,242.46,461.85,272.02,498.19,272.02z M498.19,159.04c25.96,0,47.07,21.12,47.07,47.07s-21.12,47.07-47.07,47.07
		s-47.07-21.12-47.07-47.07S472.23,159.04,498.19,159.04z"/>
</g>
</svg>
